HIERARCHY
ROOT Hips
{
	OFFSET 0.000000 0.000000 0.000000
	CHANNELS 6 Xposition Yposition Zposition Xrotation Yrotation Zrotation
	JOINT LeftUpLeg_virtual
	{
		OFFSET 0.000000 0.000000 0.000000
		CHANNELS 3 Xrotation Yrotation Zrotation
		JOINT LeftUpLeg
		{
			OFFSET 13.026900 -6.336304 -1.092800
			CHANNELS 3 Xrotation Yrotation Zrotation
			JOINT LeftLeg
			{
				OFFSET 0.524474 -46.096886 9.782700
				CHANNELS 3 Xrotation Yrotation Zrotation
				JOINT LeftFoot
				{
					OFFSET -0.524474 -53.427422 -12.948200
					CHANNELS 3 Xrotation Yrotation Zrotation
					JOINT LeftToeBase
					{
						OFFSET 0.192200 -14.009700 16.364100
						CHANNELS 3 Xrotation Yrotation Zrotation
						JOINT LeftToe_End
						{
							OFFSET -1.784700 -0.561700 9.474800
							CHANNELS 3 Xrotation Yrotation Zrotation
							End Site
							{
								OFFSET 0 0 0
							}
						}
					}
				}
			}
		}
	}
	JOINT RightUpLeg_virtual
	{
		OFFSET 0.000000 0.000000 0.000000
		CHANNELS 3 Xrotation Yrotation Zrotation
		JOINT RightUpLeg
		{
			OFFSET -12.883000 -6.336304 -1.092800
			CHANNELS 3 Xrotation Yrotation Zrotation
			JOINT RightLeg
			{
				OFFSET -0.524587 -46.096825 9.782800
				CHANNELS 3 Xrotation Yrotation Zrotation
				JOINT RightFoot
				{
					OFFSET 0.524587 -53.427383 -12.948300
					CHANNELS 3 Xrotation Yrotation Zrotation
					JOINT RightToeBase
					{
						OFFSET -0.192200 -14.009700 16.364100
						CHANNELS 3 Xrotation Yrotation Zrotation
						JOINT RightToe_End
						{
							OFFSET 1.784700 -0.561700 9.474800
							CHANNELS 3 Xrotation Yrotation Zrotation
							End Site
							{
								OFFSET 0 0 0
							}
						}
					}
				}
			}
		}
	}
	JOINT Spine_virtual
	{
		OFFSET 0.000000 0.000000 0.000000
		CHANNELS 3 Xrotation Yrotation Zrotation
		JOINT Spine
		{
			OFFSET 0.072000 7.257294 -0.789700
			CHANNELS 3 Xrotation Yrotation Zrotation
			JOINT Spine1
			{
				OFFSET 0.000000 12.508769 -0.658067
				CHANNELS 3 Xrotation Yrotation Zrotation
				JOINT Spine1_split
				{
					OFFSET 0.000000 12.508769 -0.658067
					CHANNELS 3 Xrotation Yrotation Zrotation
					JOINT Spine2
					{
						OFFSET 0.000000 12.508769 -0.658067
						CHANNELS 3 Xrotation Yrotation Zrotation
						JOINT Neck_virtual
						{
							OFFSET 0.000000 0.000000 0.000000
							CHANNELS 3 Xrotation Yrotation Zrotation
							JOINT Neck
							{
								OFFSET 0.000000 14.033295 7.520400
								CHANNELS 3 Xrotation Yrotation Zrotation
								JOINT Head
								{
									OFFSET 0.000000 8.198502 5.703100
									CHANNELS 3 Xrotation Yrotation Zrotation
									JOINT HeadTop_End
									{
										OFFSET 0.000000 17.760803 13.332701
										CHANNELS 3 Xrotation Yrotation Zrotation
										End Site
										{
											OFFSET 0 0 0
										}
									}
								}
							}
						}
						JOINT LeftShoulder_virtual
						{
							OFFSET 0.000000 0.000000 0.000000
							CHANNELS 3 Xrotation Yrotation Zrotation
							JOINT LeftShoulder
							{
								OFFSET 6.292450 5.785301 -0.669000
								CHANNELS 3 Xrotation Yrotation Zrotation
								JOINT LeftShoulder_split
								{
									OFFSET 6.292450 5.785301 -0.669000
									CHANNELS 3 Xrotation Yrotation Zrotation
									JOINT LeftArm
									{
										OFFSET 13.907140 -6.093903 1.965100
										CHANNELS 3 Xrotation Yrotation Zrotation
										JOINT LeftForeArm
										{
											OFFSET 34.140198 0.000000 0.000000
											CHANNELS 3 Xrotation Yrotation Zrotation
											JOINT LeftHand
											{
												OFFSET 40.960209 0.000000 0.000000
												CHANNELS 3 Xrotation Yrotation Zrotation
												End Site
												{
													OFFSET 0 0 0
												}
											}
										}
									}
								}
							}
						}
						JOINT RightShoulder_virtual
						{
							OFFSET 0.000000 0.000000 0.000000
							CHANNELS 3 Xrotation Yrotation Zrotation
							JOINT RightShoulder
							{
								OFFSET -6.292450 5.785301 -0.669000
								CHANNELS 3 Xrotation Yrotation Zrotation
								JOINT RightShoulder_split
								{
									OFFSET -6.292450 5.785301 -0.669000
									CHANNELS 3 Xrotation Yrotation Zrotation
									JOINT RightArm
									{
										OFFSET -13.907140 -6.093903 1.965100
										CHANNELS 3 Xrotation Yrotation Zrotation
										JOINT RightForeArm
										{
											OFFSET -34.140198 0.000000 0.000000
											CHANNELS 3 Xrotation Yrotation Zrotation
											JOINT RightHand
											{
												OFFSET -40.960209 0.000000 0.000000
												CHANNELS 3 Xrotation Yrotation Zrotation
												End Site
												{
													OFFSET 0 0 0
												}
											}
										}
									}
								}
							}
						}
					}
				}
			}
		}
	}
}
MOTION
Frames: 6
Frame Time: 0.03333333
-1.111172 101.147926 0.434597 0.000000 0.000000 0.000000 3.032231 -58.328470 6.707831 -36.057873 9.366002 25.451984 41.734915 -7.556120 -9.726639 -7.259502 -2.461283 -9.583984 -0.327598 1.238429 0.837235 0.000000 0.000000 0.000000 3.032231 -58.328470 6.707831 -33.213338 -7.748186 -26.040074 46.181050 2.592651 -7.371338 -16.830476 3.005766 21.139130 -0.322734 -0.997381 -0.837175 0.000000 0.000000 0.000000 3.032231 -58.328470 6.707831 11.191927 0.157654 -2.923533 8.434595 0.027702 -5.592320 0.000000 0.000000 0.000000 0.000000 0.000000 0.000000 8.457034 0.027837 -5.591847 -21.556844 25.063183 12.062625 -0.293121 25.465696 -3.208470 0.000000 0.000000 0.000000 8.457034 0.027837 -5.591847 -6.221666 -11.503858 -4.023827 0.000000 0.000000 0.000000 -23.062130 9.568616 -36.639628 0.046117 -43.169285 -0.011184 0.000000 0.000000 0.000000 8.457034 0.027837 -5.591847 -5.488244 10.658287 2.466535 0.000000 0.000000 0.000000 -41.473817 -26.755550 30.078971 -155.044570 68.136861 156.691588 0.000000 0.000000 0.000000 
-1.543712 100.879852 0.847443 0.000000 0.000000 0.000000 -0.221076 -58.985377 3.409653 -34.383422 9.314606 26.458370 42.676743 -7.874751 -9.920129 -8.247339 -2.368943 -9.599384 -0.327564 1.238414 0.837249 0.000000 0.000000 0.000000 -0.221076 -58.985377 3.409653 -31.599488 -8.497945 -25.919492 46.561345 3.682613 -7.337770 -17.353202 2.979072 20.802070 -0.322740 -0.997385 -0.837153 0.000000 0.000000 0.000000 -0.221076 -58.985377 3.409653 10.329480 -0.418045 -2.078675 6.356271 -1.115957 -4.166065 0.000000 0.000000 0.000000 0.000000 0.000000 0.000000 6.388319 -1.004135 -4.289069 -6.596743 24.682767 10.020964 5.771845 24.455043 -11.198034 0.000000 0.000000 0.000000 6.388319 -1.004135 -4.289069 -7.444595 -11.224870 -7.938091 0.000000 0.000000 0.000000 -17.825465 12.833962 -32.921174 9.087196 -48.058338 1.764685 0.000000 0.000000 0.000000 6.388319 -1.004135 -4.289069 -5.983463 8.827066 3.075383 0.000000 0.000000 0.000000 -38.745884 -19.254836 28.392010 -159.791292 70.132505 163.700045 0.000000 0.000000 0.000000 
-3.832809 101.233269 2.414997 0.000000 0.000000 0.000000 -3.430896 -58.074592 0.408638 -31.313207 9.853150 26.680647 42.438865 -9.326558 -9.978530 -9.919298 -2.287874 -9.373141 -0.340134 1.238478 0.837685 0.000000 0.000000 0.000000 -3.430896 -58.074592 0.408638 -27.316121 -10.216813 -26.382941 45.433896 3.828304 -7.216029 -18.979216 2.548138 21.284683 -0.318292 -0.977489 -0.825198 0.000000 0.000000 0.000000 -3.430896 -58.074592 0.408638 8.757467 -1.224475 -0.449771 2.764289 -2.740633 -1.391102 0.000000 0.000000 0.000000 0.000000 0.000000 0.000000 2.788126 -2.507216 -1.672031 15.370637 22.706219 8.357471 14.968604 21.310264 -22.360339 0.000000 0.000000 0.000000 2.788126 -2.507216 -1.672031 -9.118292 -10.823754 -14.560201 0.000000 0.000000 0.000000 -11.795160 16.529080 -30.545712 20.280452 -54.742450 5.702320 0.000000 0.000000 0.000000 2.788126 -2.507216 -1.672031 -6.841707 5.353251 4.471323 0.000000 0.000000 0.000000 -32.053149 -9.337530 22.260556 -172.524445 63.944081 -178.458008 0.000000 0.000000 0.000000 
-7.639168 105.905815 4.742188 0.000000 0.000000 0.000000 -6.461753 -54.525339 -1.996888 -22.181280 9.432518 20.894858 34.554053 -7.085447 -5.352616 -9.293909 -1.904962 -11.934890 -0.373055 1.237843 0.838011 0.000000 0.000000 0.000000 -6.461753 -54.525339 -1.996888 -16.302027 -15.431327 -25.929753 34.934604 2.083594 -6.167020 -17.685064 1.965732 21.939990 -0.313849 -0.363973 -0.836532 0.000000 0.000000 0.000000 -6.461753 -54.525339 -1.996888 7.432229 -1.292454 1.133181 0.073103 -2.889665 1.174774 0.000000 0.000000 0.000000 0.000000 0.000000 0.000000 0.080099 -2.757798 0.936521 21.689305 18.210836 12.162269 19.385069 17.959783 -23.595674 0.000000 0.000000 0.000000 0.080099 -2.757798 0.936521 -10.108040 -9.688289 -18.765853 0.000000 0.000000 0.000000 -8.320136 7.001493 -36.207509 28.914329 -50.052620 8.962374 0.000000 0.000000 0.000000 0.080099 -2.757798 0.936521 -7.484666 2.271107 6.303830 0.000000 0.000000 0.000000 -27.690842 -13.700340 14.464898 -176.945066 47.614021 -170.179108 0.000000 0.000000 0.000000 
-8.978071 109.333534 7.464066 0.000000 0.000000 0.000000 -8.921037 -49.978970 -3.789737 -15.313813 6.666220 14.956052 28.677236 -4.845612 -0.823603 -8.165831 -1.798580 -13.540820 -0.412738 1.237101 0.838708 0.000000 0.000000 0.000000 -8.921037 -49.978970 -3.789737 -6.505061 -19.855578 -25.272151 24.975804 -1.307582 -5.066717 -14.047017 0.951767 23.239920 -0.679096 0.580551 -0.390460 0.000000 0.000000 0.000000 -8.921037 -49.978970 -3.789737 6.237532 -0.700265 2.320719 -1.612071 -1.688430 2.795862 0.000000 0.000000 0.000000 0.000000 0.000000 0.000000 -1.592655 -1.721212 2.733277 12.858800 11.157511 18.657930 20.106854 13.634955 -18.134726 0.000000 0.000000 0.000000 -1.592655 -1.721212 2.733277 -10.203486 -7.487136 -19.427203 0.000000 0.000000 0.000000 -1.835914 -3.336902 -41.100882 42.681347 -49.815001 23.002081 0.000000 0.000000 0.000000 -1.592655 -1.721212 2.733277 -7.724117 1.185877 8.419432 0.000000 0.000000 0.000000 -35.405792 -30.168324 8.732739 -167.328105 35.586911 -174.222211 0.000000 0.000000 0.000000 
-8.146832 108.697006 10.012833 0.000000 0.000000 0.000000 -10.781682 -45.396869 -4.707022 -14.895855 2.442366 10.023704 31.876766 -2.762354 3.009160 -9.941816 -2.229276 -14.245653 -0.391202 1.237526 0.838336 0.000000 0.000000 0.000000 -10.781682 -45.396869 -4.707022 -4.761032 -20.632518 -26.688887 27.206925 -6.257965 -5.845485 -10.562148 -0.065418 24.776581 -4.849068 2.635846 1.203580 0.000000 0.000000 0.000000 -10.781682 -45.396869 -4.707022 5.683824 -0.217882 2.778006 -2.736500 -0.813925 3.565338 0.000000 0.000000 0.000000 0.000000 0.000000 0.000000 -2.714054 -0.818251 3.538948 0.947679 5.908274 20.202772 21.407252 10.737610 -18.813024 0.000000 0.000000 0.000000 -2.714054 -0.818251 3.538948 -9.926194 -5.678118 -18.446539 0.000000 0.000000 0.000000 8.274701 -5.953042 -36.263851 53.769664 -62.255897 42.375938 0.000000 0.000000 0.000000 -2.714054 -0.818251 3.538948 -8.040429 2.952611 10.767433 0.000000 0.000000 0.000000 -62.005038 -44.397056 -8.061971 -142.863802 31.338735 175.531463 0.000000 0.000000 0.000000 
